<mxfile host="app.diagrams.net" modified="2023-06-02T08:22:45.307Z" agent="Mozilla/5.0 (Windows NT 10.0; Win64; x64) AppleWebKit/537.36 (KHTML, like Gecko) Chrome/113.0.0.0 Safari/537.36" etag="fCQPp3Jqnv-nsaOMNLce" version="21.3.7" type="github">
  <diagram name="第 1 页" id="kr8SmRhsVuFbHTsCatD1">
    <mxGraphModel dx="4295" dy="511" grid="0" gridSize="10" guides="1" tooltips="1" connect="1" arrows="1" fold="1" page="1" pageScale="1" pageWidth="827" pageHeight="1169" math="0" shadow="0">
      <root>
        <mxCell id="0" />
        <mxCell id="1" parent="0" />
        <mxCell id="ZlHzcMSenoy30nBdFDcZ-1" style="edgeStyle=orthogonalEdgeStyle;rounded=0;orthogonalLoop=1;jettySize=auto;html=1;exitX=0.5;exitY=1;exitDx=0;exitDy=0;exitPerimeter=0;" parent="1" source="ZlHzcMSenoy30nBdFDcZ-2" target="ZlHzcMSenoy30nBdFDcZ-4" edge="1">
          <mxGeometry relative="1" as="geometry" />
        </mxCell>
        <mxCell id="ZlHzcMSenoy30nBdFDcZ-2" value="开始" style="strokeWidth=2;html=1;shape=mxgraph.flowchart.terminator;whiteSpace=wrap;fontSize=12;" parent="1" vertex="1">
          <mxGeometry x="-2980" y="16" width="114" height="47" as="geometry" />
        </mxCell>
        <mxCell id="VAnTZDY2xyBxzm2Dqna8-4" style="edgeStyle=orthogonalEdgeStyle;rounded=0;orthogonalLoop=1;jettySize=auto;html=1;exitX=0.5;exitY=1;exitDx=0;exitDy=0;entryX=0.5;entryY=0;entryDx=0;entryDy=0;" edge="1" parent="1" source="ZlHzcMSenoy30nBdFDcZ-4" target="VAnTZDY2xyBxzm2Dqna8-2">
          <mxGeometry relative="1" as="geometry" />
        </mxCell>
        <mxCell id="ZlHzcMSenoy30nBdFDcZ-4" value="新增角色" style="rounded=0;whiteSpace=wrap;html=1;fontSize=12;" parent="1" vertex="1">
          <mxGeometry x="-2983.5" y="85" width="121" height="41" as="geometry" />
        </mxCell>
        <mxCell id="VAnTZDY2xyBxzm2Dqna8-5" style="edgeStyle=orthogonalEdgeStyle;rounded=0;orthogonalLoop=1;jettySize=auto;html=1;exitX=0.5;exitY=1;exitDx=0;exitDy=0;entryX=0.5;entryY=0;entryDx=0;entryDy=0;" edge="1" parent="1" source="VAnTZDY2xyBxzm2Dqna8-2" target="VAnTZDY2xyBxzm2Dqna8-3">
          <mxGeometry relative="1" as="geometry" />
        </mxCell>
        <mxCell id="VAnTZDY2xyBxzm2Dqna8-2" value="填写角色的名称和描述" style="rounded=0;whiteSpace=wrap;html=1;fontSize=12;" vertex="1" parent="1">
          <mxGeometry x="-2983.5" y="149" width="121" height="41" as="geometry" />
        </mxCell>
        <mxCell id="VAnTZDY2xyBxzm2Dqna8-7" style="edgeStyle=orthogonalEdgeStyle;rounded=0;orthogonalLoop=1;jettySize=auto;html=1;exitX=0.5;exitY=1;exitDx=0;exitDy=0;" edge="1" parent="1" source="VAnTZDY2xyBxzm2Dqna8-3" target="VAnTZDY2xyBxzm2Dqna8-6">
          <mxGeometry relative="1" as="geometry">
            <Array as="points">
              <mxPoint x="-2923" y="268" />
              <mxPoint x="-2923" y="268" />
            </Array>
          </mxGeometry>
        </mxCell>
        <mxCell id="VAnTZDY2xyBxzm2Dqna8-3" value="点击角色创建按钮" style="rounded=0;whiteSpace=wrap;html=1;fontSize=12;" vertex="1" parent="1">
          <mxGeometry x="-2983.5" y="214" width="121" height="41" as="geometry" />
        </mxCell>
        <mxCell id="VAnTZDY2xyBxzm2Dqna8-10" value="是" style="edgeStyle=orthogonalEdgeStyle;rounded=0;orthogonalLoop=1;jettySize=auto;html=1;exitX=1;exitY=0.5;exitDx=0;exitDy=0;entryX=0.5;entryY=1;entryDx=0;entryDy=0;" edge="1" parent="1" source="VAnTZDY2xyBxzm2Dqna8-6" target="VAnTZDY2xyBxzm2Dqna8-9">
          <mxGeometry relative="1" as="geometry" />
        </mxCell>
        <mxCell id="VAnTZDY2xyBxzm2Dqna8-15" style="edgeStyle=orthogonalEdgeStyle;rounded=0;orthogonalLoop=1;jettySize=auto;html=1;exitX=0.5;exitY=1;exitDx=0;exitDy=0;" edge="1" parent="1" source="VAnTZDY2xyBxzm2Dqna8-6" target="VAnTZDY2xyBxzm2Dqna8-13">
          <mxGeometry relative="1" as="geometry" />
        </mxCell>
        <mxCell id="VAnTZDY2xyBxzm2Dqna8-6" value="名称或描述为空？" style="rhombus;whiteSpace=wrap;html=1;" vertex="1" parent="1">
          <mxGeometry x="-2988.25" y="271" width="130.5" height="64" as="geometry" />
        </mxCell>
        <mxCell id="VAnTZDY2xyBxzm2Dqna8-12" style="edgeStyle=orthogonalEdgeStyle;rounded=0;orthogonalLoop=1;jettySize=auto;html=1;exitX=0.5;exitY=0;exitDx=0;exitDy=0;entryX=0.5;entryY=0;entryDx=0;entryDy=0;" edge="1" parent="1" source="VAnTZDY2xyBxzm2Dqna8-9" target="VAnTZDY2xyBxzm2Dqna8-2">
          <mxGeometry relative="1" as="geometry">
            <Array as="points">
              <mxPoint x="-2750" y="134" />
              <mxPoint x="-2923" y="134" />
            </Array>
          </mxGeometry>
        </mxCell>
        <mxCell id="VAnTZDY2xyBxzm2Dqna8-9" value="响应名称或描述为空" style="rounded=0;whiteSpace=wrap;html=1;fontSize=12;" vertex="1" parent="1">
          <mxGeometry x="-2811" y="214" width="121" height="41" as="geometry" />
        </mxCell>
        <mxCell id="VAnTZDY2xyBxzm2Dqna8-17" style="edgeStyle=orthogonalEdgeStyle;rounded=0;orthogonalLoop=1;jettySize=auto;html=1;exitX=0.5;exitY=1;exitDx=0;exitDy=0;" edge="1" parent="1" source="VAnTZDY2xyBxzm2Dqna8-13" target="VAnTZDY2xyBxzm2Dqna8-16">
          <mxGeometry relative="1" as="geometry" />
        </mxCell>
        <mxCell id="VAnTZDY2xyBxzm2Dqna8-13" value="完成角色创建" style="rounded=0;whiteSpace=wrap;html=1;fontSize=12;" vertex="1" parent="1">
          <mxGeometry x="-2983.5" y="359" width="121" height="41" as="geometry" />
        </mxCell>
        <mxCell id="VAnTZDY2xyBxzm2Dqna8-20" style="edgeStyle=orthogonalEdgeStyle;rounded=0;orthogonalLoop=1;jettySize=auto;html=1;exitX=0.5;exitY=1;exitDx=0;exitDy=0;entryX=0.5;entryY=0;entryDx=0;entryDy=0;" edge="1" parent="1" source="VAnTZDY2xyBxzm2Dqna8-16" target="VAnTZDY2xyBxzm2Dqna8-18">
          <mxGeometry relative="1" as="geometry" />
        </mxCell>
        <mxCell id="VAnTZDY2xyBxzm2Dqna8-16" value="选择角色并分配权限" style="rounded=0;whiteSpace=wrap;html=1;fontSize=12;" vertex="1" parent="1">
          <mxGeometry x="-2983.5" y="432" width="121" height="41" as="geometry" />
        </mxCell>
        <mxCell id="VAnTZDY2xyBxzm2Dqna8-21" style="edgeStyle=orthogonalEdgeStyle;rounded=0;orthogonalLoop=1;jettySize=auto;html=1;exitX=0.5;exitY=1;exitDx=0;exitDy=0;entryX=0.5;entryY=0;entryDx=0;entryDy=0;" edge="1" parent="1" source="VAnTZDY2xyBxzm2Dqna8-18" target="VAnTZDY2xyBxzm2Dqna8-19">
          <mxGeometry relative="1" as="geometry" />
        </mxCell>
        <mxCell id="VAnTZDY2xyBxzm2Dqna8-18" value="点击用户管理页面" style="rounded=0;whiteSpace=wrap;html=1;fontSize=12;" vertex="1" parent="1">
          <mxGeometry x="-2983.5" y="500" width="121" height="41" as="geometry" />
        </mxCell>
        <mxCell id="VAnTZDY2xyBxzm2Dqna8-23" style="edgeStyle=orthogonalEdgeStyle;rounded=0;orthogonalLoop=1;jettySize=auto;html=1;exitX=0.5;exitY=1;exitDx=0;exitDy=0;" edge="1" parent="1" source="VAnTZDY2xyBxzm2Dqna8-19" target="VAnTZDY2xyBxzm2Dqna8-22">
          <mxGeometry relative="1" as="geometry" />
        </mxCell>
        <mxCell id="VAnTZDY2xyBxzm2Dqna8-19" value="选择用户并分配角色" style="rounded=0;whiteSpace=wrap;html=1;fontSize=12;" vertex="1" parent="1">
          <mxGeometry x="-2983.5" y="571" width="121" height="41" as="geometry" />
        </mxCell>
        <mxCell id="VAnTZDY2xyBxzm2Dqna8-25" style="edgeStyle=orthogonalEdgeStyle;rounded=0;orthogonalLoop=1;jettySize=auto;html=1;exitX=0.5;exitY=1;exitDx=0;exitDy=0;" edge="1" parent="1" source="VAnTZDY2xyBxzm2Dqna8-22" target="VAnTZDY2xyBxzm2Dqna8-24">
          <mxGeometry relative="1" as="geometry" />
        </mxCell>
        <mxCell id="VAnTZDY2xyBxzm2Dqna8-22" value="完成用户角色分配" style="rounded=0;whiteSpace=wrap;html=1;fontSize=12;" vertex="1" parent="1">
          <mxGeometry x="-2983.5" y="640" width="121" height="41" as="geometry" />
        </mxCell>
        <mxCell id="VAnTZDY2xyBxzm2Dqna8-24" value="结束" style="strokeWidth=2;html=1;shape=mxgraph.flowchart.terminator;whiteSpace=wrap;fontSize=12;" vertex="1" parent="1">
          <mxGeometry x="-2980" y="709" width="114" height="47" as="geometry" />
        </mxCell>
      </root>
    </mxGraphModel>
  </diagram>
</mxfile>
